<?xml version="1.0" encoding="utf-8"?>
<!-- Generator: Adobe Adobe Illustrator 24.2.0, SVG Export Plug-In . SVG Version: 6.00 Build 0)  -->
<svg version="1.1" id="Layer_1" xmlns="http://www.w3.org/2000/svg" xmlns:xlink="http://www.w3.org/1999/xlink" x="0px" y="0px"
	 viewBox="0 0 50.2 44.9" style="enable-background:new 0 0 50.2 44.9;" xml:space="preserve">
<style type="text/css">
	.st0{fill:#010202;}
	.st1{font-family:'Impact';}
	.st2{font-size:12.8105px;}
</style>
<text transform="matrix(1 0 0 1 1.1365 40.5121)" class="st1 st2">CineExpo</text>
<g>
	<g>
		<path d="M18.4,18.2c-0.1-0.4-0.2-0.9-0.3-1.3c-0.1-0.3,0-0.3,0.3-0.4c0.8-0.2,1.5-0.3,2.3-0.5c0.1,0,0.2,0,0.3-0.1
			c-0.1-0.2-0.2-0.4-0.3-0.6c-0.1-0.1-0.1,0-0.2,0c-0.3,0.1-0.5,0.2-0.8,0.2c-1.6,0.2-2.9-0.3-3.8-1.6c-0.9-1.3-1-2.7-0.2-4.1
			c0.5-0.9,1.2-1.5,2.2-1.8c0.6-0.2,1.2-0.2,1.8-0.1C19.9,8,20.2,8,20.4,8.1c0.6,0.3,1.2,0.7,1.6,1.2c0.2,0.3,0.4,0.6,0.6,0.9
			c0.3,0.8,0.4,1.6,0.1,2.5c-0.1,0.3-0.2,0.7-0.4,1c-0.1,0.1-0.1,0.2,0,0.3c0.3,0.5,0.5,1,0.8,1.4c0.1,0.1,0.2,0.2,0.3,0.1
			c0.7-0.1,1.4-0.3,2.1-0.4c0.2,0,0.3-0.1,0.3-0.3c0.1-0.6,0.3-1.2,0.4-1.8c0-0.1,0-0.2-0.1-0.3c-0.7-0.8-1-1.7-0.7-2.7
			c0.3-1.1,1-1.8,2.2-2c1.1-0.2,2.3,0.3,2.9,1.2c0.4,0.7,0.5,1.4,0.3,2.2c-0.1,0.3-0.2,0.7-0.4,0.9c-0.4,0.6-1,1-1.7,1.1
			c-0.2,0-0.3,0.1-0.3,0.3c0,0.1-0.1,0.3-0.1,0.4c-0.1,0.2,0,0.3,0.2,0.3c0.3-0.1,0.6-0.1,0.9-0.2c0.2-0.1,0.4,0,0.7-0.1
			c0.1,0,0.2,0,0.2,0.2c0.1,0.6,0.2,1.1,0.3,1.7c0,0.2-0.1,0.2-0.2,0.2c-0.5,0.1-1,0.2-1.5,0.3c-1.2,0.2-2.4,0.5-3.6,0.7
			c-1.3,0.2-2.6,0.5-4,0.8c-0.1,0-0.3,0-0.4,0.1c0.1,0.2,0.3,0.4,0.5,0.3c3,0,6,0,9,0c0.4,0,0.4,0,0.4,0.4c0,0.8,0,1.6,0,2.4
			c0,0.2,0,0.3,0.2,0.2c0.2,0,0.4,0,0.7,0c0.2,0,0.3-0.1,0.2-0.2c-0.1-0.3,0.1-0.4,0.4-0.6c0.9-0.4,1.9-0.6,2.8-1
			c0.4-0.2,0.8-0.3,1.2-0.4c0.2-0.1,0.3-0.1,0.3,0.2c0,1.7,0,3.4,0,5.1c0,0.5,0,1.1,0,1.6c0,0.2,0,0.3-0.3,0.2
			c-1.2-0.4-2.3-0.8-3.5-1.3c-0.2-0.1-0.4-0.1-0.6-0.2C32,25,32,24.9,32,24.6c0-0.3,0-0.3-0.3-0.3c-0.2,0-0.4,0-0.6,0
			c-0.2,0-0.2,0.1-0.2,0.2c0,0.4,0,0.8,0,1.3c0,0.2,0,0.5-0.1,0.7c-0.1,0.3-0.4,0.4-0.7,0.4c-0.4,0-0.9,0-1.4,0c-0.8,0-1.5,0-2.3,0
			c-0.9,0-1.8,0-2.7,0c-0.8,0-1.6,0-2.4,0c-0.7,0-1.3,0-2,0c-0.6-0.1-0.8-0.4-0.9-1c0-0.6,0-1.3,0-1.9c0-0.3-0.1-0.4-0.4-0.3
			c-0.1,0-0.1,0.1-0.1,0.1c0,0.2-0.1,0.2-0.3,0.3c-0.6,0.2-1.2,0.4-1.7,0.6c-0.2,0.1-0.2,0-0.2-0.2c0-1,0-2,0-3
			c0-0.2,0.1-0.2,0.2-0.2c0.6,0.2,1.2,0.4,1.8,0.6c0.1,0,0.2,0.1,0.2,0.2c0,0.2,0.2,0.1,0.4,0.1c0.1,0,0.1-0.1,0.1-0.2c0-1,0-2,0-3
			C18.4,18.7,18.5,18.5,18.4,18.2z M26.1,16.9c0.3-0.1,0.6-0.1,0.8-0.2c0.1,0,0.1-0.1,0.2-0.2c0.1-0.5,0.2-1,0.3-1.5
			c0-0.2,0-0.2-0.2-0.2c-0.2,0-0.5,0.1-0.7,0.1c-0.1,0-0.1,0.1-0.2,0.2c-0.1,0.4-0.2,0.8-0.2,1.2C26.1,16.6,26,16.8,26.1,16.9z
			 M21.1,17.8c0,0.1,0.1,0.2,0.2,0.1c0.2,0,0.4-0.1,0.6-0.1c0.2,0,0.3-0.1,0.3-0.3c0-0.3,0.1-0.6,0.2-0.8c0-0.3,0.1-0.5,0.1-0.8
			c-0.3,0-0.6,0.1-0.9,0.2c-0.1,0-0.1,0.1-0.1,0.2C21.3,16.7,21.2,17.2,21.1,17.8z M30,20.2c0.2-0.5,0.4-0.9,0.6-1.4
			c-0.3,0-0.6,0-0.8,0c-0.2,0-0.3,0.1-0.4,0.2c-0.2,0.5-0.3,1-0.5,1.4c0,0,0,0,0,0.1c0.2,0,0.5,0,0.7,0C29.8,20.5,30,20.4,30,20.2z
			 M29,14.7c-0.1,0.6-0.2,1.1-0.4,1.7c0.4-0.1,0.7-0.1,1-0.2c0.1,0,0.1-0.1,0.1-0.2c0.1-0.5,0.2-0.9,0.3-1.4c0-0.1,0-0.2,0-0.3
			c-0.3,0-0.6,0.1-0.8,0.2C29,14.6,29,14.6,29,14.7z M25,20c0.2-0.4,0.3-0.8,0.5-1.3c-0.3,0-0.6,0-0.9,0c-0.2,0-0.3,0.1-0.4,0.3
			c0,0.2-0.1,0.3-0.2,0.5c-0.1,0.3-0.3,0.6-0.3,0.9c0.2,0.1,0.4,0,0.6,0C24.7,20.5,24.9,20.4,25,20z M24.9,15.4
			c-0.3,0.1-0.5,0.1-0.8,0.2c-0.1,0-0.2,0.1-0.2,0.2c-0.1,0.5-0.2,1-0.3,1.5c0,0.1,0,0.2,0.2,0.2c0.2-0.1,0.4-0.1,0.6-0.1
			c0.1,0,0.2-0.1,0.2-0.2c0.1-0.5,0.2-1,0.3-1.6C25,15.5,25,15.4,24.9,15.4z M27.9,19c0-0.1,0.1-0.1,0-0.2c-0.3,0-0.6,0-0.9,0
			c-0.1,0-0.1,0.1-0.2,0.1c-0.1,0.3-0.3,0.6-0.4,0.9c-0.1,0.2-0.2,0.4-0.3,0.7c0.3,0.1,0.6,0,0.8,0.1c0.2,0,0.3,0,0.3-0.2
			C27.5,19.8,27.7,19.4,27.9,19z M19.5,9C19.5,9,19.5,9,19.5,9c-0.1,0.3-0.1,0.7,0.1,0.9c0.2,0.2,0.6,0.3,0.9,0.1
			c0.3-0.1,0.4-0.4,0.4-0.7c0-0.3-0.3-0.6-0.5-0.6C20.1,8.5,19.8,8.6,19.5,9z M16.5,9.8c-0.2,0-0.4,0.1-0.5,0.3
			c-0.2,0.3-0.2,0.6,0,0.8c0.2,0.3,0.4,0.3,0.7,0.3c0.3,0,0.5-0.2,0.6-0.5C17.5,10.2,17.1,9.8,16.5,9.8z M20.8,13.2
			c0.1,0.2,0.2,0.3,0.4,0.3c0.3,0.1,0.8-0.1,0.9-0.4c0.1-0.4,0-0.7-0.3-0.9c-0.3-0.2-0.7-0.1-1,0.2C20.6,12.7,20.6,12.9,20.8,13.2z
			 M21.1,10.2c-0.4,0.4-0.4,0.7-0.1,1.1c0.2,0.2,0.5,0.3,0.8,0.1c0.3-0.1,0.5-0.5,0.4-0.7C22.2,10.2,21.6,9.9,21.1,10.2z M19.5,13.5
			c-0.4,0.2-0.5,0.6-0.4,0.9c0.1,0.4,0.5,0.6,0.9,0.4c0.4-0.1,0.6-0.5,0.5-0.9C20.5,13.6,20,13.3,19.5,13.5z M16.4,13.2
			c0.1,0,0.2,0,0.2,0c0.3,0,0.5-0.3,0.6-0.6c0.1-0.2-0.1-0.6-0.3-0.7c-0.2-0.2-0.6-0.2-0.8,0c-0.2,0.2-0.3,0.4-0.3,0.7
			C15.8,12.9,16,13.1,16.4,13.2z M17.9,8.5c-0.5,0.3-0.6,0.8-0.3,1.2c0.2,0.3,0.6,0.3,0.9,0.2c0.3-0.2,0.4-0.4,0.4-0.8
			C18.8,8.6,18.4,8.4,17.9,8.5z M18.2,14.6c0.3-0.3,0.4-0.6,0.2-0.9c-0.2-0.3-0.6-0.5-0.9-0.3c-0.3,0.1-0.6,0.6-0.4,1
			C17.4,14.7,17.8,14.9,18.2,14.6z M26.8,23.9c-0.1,0-0.2,0-0.3,0c-0.9,0-1.8,0-2.7,0c-1.4,0-2.8,0-4.1,0c-0.1,0-0.2,0-0.3,0.1
			c0.1,0,0.2,0,0.3,0c0.7,0,1.4,0,2.1,0c0.2,0,0.3,0.1,0.3,0.3c0,0.3,0,0.6,0,0.9c0,0.1,0,0.2,0.1,0.2c0.1-0.1,0.1-0.1,0.1-0.2
			c0-0.3,0-0.6,0-0.8c0-0.3,0-0.3,0.3-0.3c1.3,0,2.7,0,4,0c0.1,0,0.2,0,0.3,0c0.2,0,0.2,0.1,0.2,0.2c0,0.3,0,0.6,0,0.9
			c0,0.1,0,0.2,0.1,0.2c0.1-0.1,0-0.1,0-0.2c0-0.3,0-0.6,0-0.8c0-0.3,0-0.3,0.3-0.3c0.7,0,1.3,0,2,0c0.1,0,0.2,0,0.2,0
			c0,0,0,0,0-0.1C28.8,23.9,27.9,23.9,26.8,23.9z M25.3,22.8c-2,0-3.9,0-5.9,0c0.1,0.1,0.2,0.1,0.3,0.1c3.2,0,6.5,0,9.7,0
			c0.1,0,0.2,0,0.3-0.1C28.3,22.8,26.9,22.8,25.3,22.8z M22.8,19c0-0.1,0.1-0.1,0.1-0.2c-0.3,0-0.6,0-1,0c-0.1,0-0.2,0.2-0.1,0.3
			c0.1,0.1,0.2,0.2,0.3,0.3c0.2,0.1,0.3,0.3,0.2,0.5c-0.1,0.2-0.3,0.3-0.5,0.3c-0.1,0-0.3,0-0.4,0c-0.2,0-0.3,0.1-0.3,0.3
			c0.3,0.1,0.6,0,0.8,0c0.2,0,0.3,0,0.3-0.2C22.5,19.9,22.7,19.4,22.8,19z M29.7,10.1c-0.1,0.1-0.1,0.1-0.1,0.2
			c-0.1,0.3,0,0.6,0.2,0.7c0.3,0.1,0.6,0,0.7-0.3c0.1-0.2,0-0.4-0.1-0.6C30.2,10,30,10,29.7,10.1z M26.4,12.5
			c0.1,0.2,0.3,0.3,0.5,0.3c0.2,0,0.4-0.1,0.5-0.3c0.1-0.2,0.1-0.5-0.1-0.6c-0.2-0.2-0.4-0.2-0.6-0.1C26.4,11.9,26.3,12.1,26.4,12.5
			z M29.5,12.5c0.2,0,0.4,0,0.6-0.2c0.1-0.2,0.1-0.3,0-0.5c-0.1-0.2-0.3-0.3-0.6-0.3c-0.2,0-0.4,0.2-0.4,0.4
			C29.1,12.2,29.1,12.4,29.5,12.5z M28.3,8.6c0,0-0.1-0.1-0.1-0.1c-0.2-0.2-0.5-0.2-0.6-0.1c-0.2,0.1-0.3,0.4-0.2,0.7
			c0.1,0.3,0.3,0.4,0.6,0.3C28.3,9.3,28.4,9,28.3,8.6z M25.4,21.7c-2,0-4,0-5.9,0c0,0,0,0,0,0.1c3.5,0,6.9,0,10.4,0c0,0,0,0,0-0.1
			C28.4,21.7,26.9,21.7,25.4,21.7z M28.8,12.8c0,0,0-0.1,0-0.1c0-0.3-0.3-0.6-0.6-0.5c-0.3,0-0.5,0.3-0.5,0.6c0,0.3,0.3,0.5,0.6,0.5
			C28.6,13.2,28.7,13.1,28.8,12.8z M26.2,9.9c0.2,0.2,0.5,0.2,0.7,0.1c0.2-0.1,0.3-0.4,0.2-0.6C27,9.1,26.7,9,26.4,9.1
			C26.1,9.2,26,9.5,26.2,9.9z M25.9,11.4c0.2,0.2,0.5,0.1,0.7-0.1c0.2-0.2,0.1-0.5-0.1-0.7c-0.2-0.2-0.5-0.2-0.7,0.1
			C25.6,10.9,25.6,11.1,25.9,11.4z M29.7,9c0,0-0.1-0.1-0.1-0.1C29.3,8.7,29,8.7,28.9,9c-0.2,0.2-0.1,0.5,0.2,0.7
			c0.2,0.1,0.4,0.1,0.6-0.1C29.8,9.5,29.9,9.3,29.7,9z M18.6,11.5c0,0,0,0.1,0,0.1c0,0.2,0.1,0.5,0.3,0.5c0.2,0.1,0.4,0,0.5-0.2
			c0.1-0.2,0.1-0.5-0.1-0.7c-0.2-0.1-0.5-0.1-0.6,0.1C18.6,11.4,18.6,11.4,18.6,11.5z M19.4,16.5c-0.1,0-0.2,0.1-0.2,0.2
			c0,0.1,0.1,0.1,0.2,0.2c0.1,0.1,0.3,0.2,0.4,0.3c0.1,0.1,0.2,0.2,0.3,0.2c0.1-0.3,0.2-0.6,0.2-1C19.9,16.4,19.6,16.4,19.4,16.5z
			 M28.4,10.9c0-0.2-0.1-0.4-0.3-0.4c-0.2,0-0.3,0.1-0.4,0.2c0,0.1,0,0.3,0.1,0.4C28,11.1,28.3,11.1,28.4,10.9z M18.9,20.3
			c0,0.1,0.1,0.1,0.1,0.1c0.2,0,0.5,0,0.7,0c0.2,0,0.2-0.1,0.2-0.3c-0.3,0-0.5,0-0.8,0C19.1,20.1,19,20.1,18.9,20.3z M21.7,19.4
			c-0.1,0-0.2,0.1-0.2,0.2c0,0.1,0.1,0.2,0.2,0.2c0.1,0,0.2,0,0.2-0.1C21.9,19.6,21.9,19.5,21.7,19.4z M19.5,19.7
			c0-0.1,0-0.2-0.2-0.2c-0.1,0-0.2,0-0.2,0.1c0,0.1,0,0.2,0.1,0.3C19.4,19.9,19.5,19.8,19.5,19.7z M19.4,17.7c0.1,0,0.1-0.1,0.1-0.2
			c0-0.1,0-0.1-0.1-0.1c-0.1,0-0.2,0-0.2,0.1C19.2,17.6,19.2,17.7,19.4,17.7z"/>
	</g>
</g>
</svg>
